<svg xmlns="http://www.w3.org/2000/svg" viewBox="0 0 1046 1198"><g fill="none" fill-rule="evenodd"><path fill="#3E3E3E" fill-rule="nonzero" d="m725.064 928.847-1.367 155.463-167.005 102.79a67.474 67.474 0 0 1-68.244 1.47l-168.423-93.93-1.602-158.37 172.304 96.26a67.495 67.495 0 0 0 68.294-1.45l166.043-102.233ZM259.492 146.27l-1.383 159.043-93.213 57.791a67.483 67.483 0 0 0-31.925 57.355v365.077a67.485 67.485 0 0 0 32.418 57.658l87.574 53.261-1.366 156.565L32.415 919.703A67.484 67.484 0 0 1 0 862.047V344.705a67.484 67.484 0 0 1 31.926-57.356L259.492 146.27Zm523.456 11.034 230.032 136.614a67.49 67.49 0 0 1 33.02 58.023v510.1a67.483 67.483 0 0 1-34.17 58.686L791.906 1045.58l-1.552-153.815 88.485-50.224a67.487 67.487 0 0 0 34.172-58.689V429.368a67.485 67.485 0 0 0-33.019-58.019l-95.458-56.706-1.586-157.339ZM557.065 11.216 732.048 127.07l-1.35 155.601L558.54 168.534a67.487 67.487 0 0 0-72.079-1.581L311.725 272.077l-1.586-157.203L485.02 9.659a67.484 67.484 0 0 1 72.045 1.557Z"/><path fill="#EA4A35" d="M344 363h359v97H344zM344 546h328v97H344z"/><path fill="#C62712" d="M344 363h137v412c0 33.137-26.863 60-60 60h-77V363Z"/></g></svg>